<svg width="0" height="0" class="hidden">
  <symbol fill="none" xmlns="http://www.w3.org/2000/svg" viewBox="0 0 24 24" id="add-water">
    <path d="M12 5v14M5 12h14" stroke="#fff" stroke-width="2" stroke-linecap="round" stroke-linejoin="round"></path>
  </symbol>
  <symbol fill="none" xmlns="http://www.w3.org/2000/svg" viewBox="0 0 6 10" id="arrow">
    <path d="M1.667 8.333 5 5 1.667 1.667" stroke="#323F47" stroke-width="1.5" stroke-linecap="round" stroke-linejoin="round"></path>
  </symbol>
  <symbol fill="none" xmlns="http://www.w3.org/2000/svg" viewBox="0 0 10 2" id="arrow-line">
    <path d="M9 1H1" stroke="#323F47" stroke-width="1.5" stroke-linecap="round" stroke-linejoin="round"></path>
  </symbol>
  <symbol fill="none" xmlns="http://www.w3.org/2000/svg" viewBox="0 0 6 22" id="exclamation-mark">
    <path d="M1.263 12.75c.084.87.226 1.516.42 1.943.198.425.548.637 1.054.637.094 0 .179-.015.263-.032.086.017.17.032.265.032.504 0 .856-.212 1.052-.637.196-.427.335-1.073.42-1.943l.45-6.718c.083-1.31.125-2.249.125-2.819 0-.776-.202-1.382-.608-1.817C4.296.961 3.76.745 3.097.745c-.035 0-.062.007-.097.009-.033-.002-.06-.01-.094-.01-.665 0-1.2.217-1.607.652-.406.436-.61 1.042-.61 1.817 0 .57.042 1.51.126 2.82l.448 6.717Zm1.754 5.036c-.644 0-1.191.203-1.646.609-.454.407-.681.9-.681 1.48 0 .654.23 1.169.687 1.543.46.374.995.561 1.607.561.623 0 1.167-.184 1.632-.554.464-.368.696-.886.696-1.55 0-.579-.222-1.073-.666-1.48-.445-.406-.987-.61-1.63-.61" fill="#9BE1A0"></path>
  </symbol>
  <symbol fill="none" xmlns="http://www.w3.org/2000/svg" viewBox="0 0 6 14" id="exit">
    <path d="M5 13H2.333A1.334 1.334 0 0 1 1 11.667V2.333A1.333 1.333 0 0 1 2.333 1H5" stroke="#323F47" stroke-width="1.5" stroke-linecap="round" stroke-linejoin="round"></path>
  </symbol>
  <symbol fill="none" xmlns="http://www.w3.org/2000/svg" viewBox="0 0 20 16" id="eye">
    <path d="M14.95 12.95A8.391 8.391 0 0 1 10 14.667C4.166 14.667.833 8 .833 8A15.375 15.375 0 0 1 5.05 3.05m3.2-1.517a7.6 7.6 0 0 1 1.75-.2C15.833 1.333 19.166 8 19.166 8a15.414 15.414 0 0 1-1.8 2.658m-5.6-.891a2.5 2.5 0 1 1-3.533-3.534" stroke="#2F2F2F" stroke-width="1.8" stroke-linecap="round" stroke-linejoin="round"></path>
  </symbol>
  <symbol fill="none" xmlns="http://www.w3.org/2000/svg" viewBox="0 0 20 20" id="eye-strip">
    <path d="m.833.833 18.333 18.334" stroke="#2F2F2F" stroke-width="1.8" stroke-linecap="round" stroke-linejoin="round"></path>
  </symbol>
  <symbol fill="none" xmlns="http://www.w3.org/2000/svg" viewBox="0 0 43 43" id="minus">
    <rect x=".75" y=".75" width="41.5" height="41.5" rx="20.75" stroke="#323F47" stroke-width="1.5"></rect>
    <path d="M13.821 21.5h15.357" stroke="#323F47" stroke-width="1.8" stroke-linecap="round" stroke-linejoin="round"></path>
  </symbol>
  <symbol fill="none" xmlns="http://www.w3.org/2000/svg" viewBox="0 0 16 16" id="pencil">
    <path d="M11.333 2A1.886 1.886 0 0 1 14 4.667l-9 9-3.667 1 1-3.667 9-9Z" stroke="#323F47" stroke-width="1.8" stroke-linecap="round" stroke-linejoin="round"></path>
  </symbol>
  <symbol fill="none" xmlns="http://www.w3.org/2000/svg" viewBox="0 0 43 43" id="plus">
    <rect x=".75" y=".75" width="41.5" height="41.5" rx="20.75" stroke="#323F47" stroke-width="1.5"></rect>
    <path d="M21.5 13.822v15.357M13.821 21.5h15.357" stroke="#323F47" stroke-width="1.8" stroke-linecap="round" stroke-linejoin="round"></path>
  </symbol>
  <symbol fill="none" xmlns="http://www.w3.org/2000/svg" viewBox="0 0 24 24" id="schedule">
    <path d="M17.2 14c.277 0 .416 0 .528.062a.53.53 0 0 1 .22.243c.05.117.037.243.012.494a8 8 0 1 1-8.759-8.76c.251-.024.376-.037.494.013a.53.53 0 0 1 .243.22c.062.112.062.251.062.528v6.4c0 .28 0 .42.055.527a.5.5 0 0 0 .218.218c.107.055.247.055.527.055h6.4Z" stroke="#323F47" stroke-width="2" stroke-linecap="round" stroke-linejoin="round"></path>
    <path d="M14 2.8c0-.277 0-.416.062-.528a.53.53 0 0 1 .243-.22c.117-.05.243-.037.494-.012A8 8 0 0 1 21.96 9.2c.025.251.038.376-.012.494a.53.53 0 0 1-.22.243c-.113.062-.251.062-.528.062h-6.4c-.28 0-.42 0-.527-.055a.5.5 0 0 1-.218-.218C14 9.62 14 9.48 14 9.2V2.8Z" stroke="#9BE1A0" stroke-width="2" stroke-linecap="round" stroke-linejoin="round"></path>
  </symbol>
  <symbol fill="none" xmlns="http://www.w3.org/2000/svg" viewBox="0 0 6 6" id="settings-circle-small">
    <path d="M3 5a2 2 0 1 0 0-4 2 2 0 0 0 0 4Z" stroke="#323F47" stroke-width="1.5" stroke-linecap="round" stroke-linejoin="round"></path>
  </symbol>
  <symbol fill="none" xmlns="http://www.w3.org/2000/svg" viewBox="0 0 16 16" id="settings-gear">
    <path d="M12.934 10a1.099 1.099 0 0 0 .22 1.213l.04.04a1.333 1.333 0 1 1-1.887 1.887l-.04-.04a1.1 1.1 0 0 0-1.213-.22 1.1 1.1 0 0 0-.667 1.007V14a1.333 1.333 0 1 1-2.667 0v-.06A1.1 1.1 0 0 0 6 12.933a1.099 1.099 0 0 0-1.213.22l-.04.04a1.334 1.334 0 1 1-1.887-1.886l.04-.04a1.1 1.1 0 0 0 .22-1.214 1.1 1.1 0 0 0-1.006-.666H2A1.333 1.333 0 0 1 2 6.72h.06A1.1 1.1 0 0 0 3.067 6a1.1 1.1 0 0 0-.22-1.213l-.04-.04A1.333 1.333 0 1 1 4.694 2.86l.04.04a1.1 1.1 0 0 0 1.213.22H6a1.1 1.1 0 0 0 .667-1.007V2a1.333 1.333 0 0 1 2.667 0v.06A1.1 1.1 0 0 0 10 3.067a1.1 1.1 0 0 0 1.214-.22l.04-.04a1.332 1.332 0 0 1 2.277.943 1.333 1.333 0 0 1-.39.943l-.04.04a1.1 1.1 0 0 0-.22 1.214V6a1.1 1.1 0 0 0 1.006.667H14a1.333 1.333 0 1 1 0 2.666h-.06a1.1 1.1 0 0 0-1.006.667Z" stroke="#323F47" stroke-width="1.5" stroke-linecap="round" stroke-linejoin="round"></path>
  </symbol>
  <symbol fill="none" xmlns="http://www.w3.org/2000/svg" viewBox="0 0 16 16" id="trash">
    <path d="M6 2h4" stroke="#323F47" stroke-width="1.5" stroke-linecap="round" stroke-linejoin="round"></path>
    <path d="M2 4h12m-1.333 0-.468 7.013c-.07 1.052-.105 1.578-.332 1.977a2 2 0 0 1-.866.81c-.413.2-.94.2-1.995.2H6.994c-1.055 0-1.582 0-1.995-.2a2 2 0 0 1-.866-.81c-.227-.399-.262-.925-.332-1.977L3.333 4" stroke="#323F47" stroke-width="1.8" stroke-linecap="round" stroke-linejoin="round"></path>
  </symbol>
  <symbol fill="none" xmlns="http://www.w3.org/2000/svg" viewBox="0 0 44 45" id="water-glass">
    <path d="M37.906 7.349a3.34 3.34 0 0 0-.659-1.22 3.197 3.197 0 0 0-1.086-.83c-.412-.2-.862-.3-1.317-.295H9.228a2.572 2.572 0 0 0-1.317.277c-.424.195-.801.485-1.104.85a3.34 3.34 0 0 0-.659 1.218c-.137.446-.18.919-.124 1.384l2.92 25.843a7.318 7.318 0 0 0 2.296 4.578A6.72 6.72 0 0 0 15.815 41h12.46a6.754 6.754 0 0 0 4.593-1.846 7.478 7.478 0 0 0 2.279-4.578L36.73 20.05v-.222l1.228-11.075c.069-.467.05-.944-.053-1.403Zm-17.98 28.335h-1.78a5.032 5.032 0 0 1-3.115-1.33 5.264 5.264 0 0 1-1.602-3.082l-.427-3.175a1.914 1.914 0 0 1 .362-1.357c.287-.386.709-.64 1.174-.707a1.75 1.75 0 0 1 1.316.346c.379.289.633.72.708 1.201l.427 3.138c.048.343.212.657.463.886.249.237.57.374.908.388h1.78c.472 0 .925.194 1.259.54.334.347.521.816.521 1.306 0 .49-.187.959-.521 1.305a1.75 1.75 0 0 1-1.259.54h-.213Zm14.241-17.038c-3.756.757-6.96.904-10.36-1.846-4.219-3.452-9.328-2.345-14.24-.535l-.89-7.827a.555.555 0 0 1 0-.24.482.482 0 0 1 .124-.203.359.359 0 0 1 .178-.148c.07-.02.144-.02.213 0H35.04a.7.7 0 0 1 .178.148.436.436 0 0 1 .106.203.42.42 0 0 1 0 .258l-1.157 10.19Z" fill="#9BE1A0"></path>
  </symbol>
  <symbol fill="none" xmlns="http://www.w3.org/2000/svg" viewBox="0 0 28 28" id="x">
    <path d="M21 7L7 21" stroke="#2F2F2F" stroke-width="3" stroke-linecap="round" stroke-linejoin="round"/>
    <path d="M7 7L21 21" stroke="#2F2F2F" stroke-width="3" stroke-linecap="round" stroke-linejoin="round"/>
  </symbol>
</svg>